<?xml version="1.0" encoding="UTF-8" standalone="no"?>
<!-- Created with Inkscape (http://www.inkscape.org/) -->

<svg
   xmlns:dc="http://purl.org/dc/elements/1.1/"
   xmlns:cc="http://creativecommons.org/ns#"
   xmlns:rdf="http://www.w3.org/1999/02/22-rdf-syntax-ns#"
   xmlns:svg="http://www.w3.org/2000/svg"
   xmlns="http://www.w3.org/2000/svg"
   xmlns:sodipodi="http://sodipodi.sourceforge.net/DTD/sodipodi-0.dtd"
   xmlns:inkscape="http://www.inkscape.org/namespaces/inkscape"
   width="335mm"
   height="680mm"
   viewBox="0 0 335 680"
   version="1.1"
   id="svg8"
   inkscape:version="0.92.4 (5da689c313, 2019-01-14)"
   sodipodi:docname="ScraPrinter_shell_editable.svg">
  <defs
     id="defs2">
    <inkscape:perspective
       sodipodi:type="inkscape:persp3d"
       inkscape:vp_x="0 : 340 : 1"
       inkscape:vp_y="0 : 1000 : 0"
       inkscape:vp_z="335 : 340 : 1"
       inkscape:persp3d-origin="167.5 : 226.66667 : 1"
       id="perspective4607" />
  </defs>
  <sodipodi:namedview
     id="base"
     pagecolor="#a3a3a3"
     bordercolor="#666666"
     borderopacity="1.0"
     inkscape:pageopacity="0"
     inkscape:pageshadow="2"
     inkscape:zoom="0.49497474"
     inkscape:cx="669.37515"
     inkscape:cy="1339.8506"
     inkscape:document-units="mm"
     inkscape:current-layer="layer9"
     showgrid="false"
     showborder="false"
     showguides="true"
     inkscape:guide-bbox="true"
     inkscape:snap-object-midpoints="true"
     inkscape:window-width="1080"
     inkscape:window-height="1856"
     inkscape:window-x="0"
     inkscape:window-y="27"
     inkscape:window-maximized="1"
     inkscape:snap-intersection-paths="true"
     fit-margin-top="0"
     fit-margin-left="0"
     fit-margin-right="0"
     fit-margin-bottom="0"
     inkscape:snap-center="true">
    <sodipodi:guide
       position="-405.19046,0"
       orientation="0,1"
       id="guide822"
       inkscape:locked="false"
       inkscape:label=""
       inkscape:color="rgb(0,0,255)" />
    <sodipodi:guide
       position="-394.60712,679.99999"
       orientation="0,1"
       id="guide824"
       inkscape:locked="false"
       inkscape:label=""
       inkscape:color="rgb(0,0,255)" />
    <sodipodi:guide
       position="-387.0476,59.999999"
       orientation="0,1"
       id="guide826"
       inkscape:locked="false"
       inkscape:label=""
       inkscape:color="rgb(0,0,255)" />
    <sodipodi:guide
       position="-368.90474,659.99999"
       orientation="0,1"
       id="guide828"
       inkscape:locked="false"
       inkscape:label=""
       inkscape:color="rgb(0,0,255)" />
    <sodipodi:guide
       position="151.06908,50"
       orientation="0,1"
       id="guide836"
       inkscape:locked="false" />
    <sodipodi:guide
       position="150,9.9999998"
       orientation="0,1"
       id="guide838"
       inkscape:locked="false" />
    <sodipodi:guide
       position="151.06908,670.00001"
       orientation="0,1"
       id="guide840"
       inkscape:locked="false" />
    <sodipodi:guide
       position="9.3998876e-16,680.00001"
       orientation="1,0"
       id="guide861"
       inkscape:locked="false" />
    <sodipodi:guide
       position="334.99998,680.00001"
       orientation="1,0"
       id="guide863"
       inkscape:locked="false" />
    <sodipodi:guide
       position="9.9999998,713.24107"
       orientation="1,0"
       id="guide867"
       inkscape:locked="false"
       inkscape:label=""
       inkscape:color="rgb(0,0,255)" />
    <sodipodi:guide
       position="324.99999,701.14583"
       orientation="1,0"
       id="guide869"
       inkscape:locked="false"
       inkscape:label=""
       inkscape:color="rgb(0,0,255)" />
    <sodipodi:guide
       position="167.5,761.1836"
       orientation="1,0"
       id="guide914"
       inkscape:locked="false"
       inkscape:label=""
       inkscape:color="rgb(0,0,255)" />
    <sodipodi:guide
       position="49.999999,435.42855"
       orientation="1,0"
       id="guide839"
       inkscape:locked="false"
       inkscape:label=""
       inkscape:color="rgb(0,0,255)" />
    <sodipodi:guide
       position="284.99999,541.26189"
       orientation="1,0"
       id="guide841"
       inkscape:locked="false"
       inkscape:label=""
       inkscape:color="rgb(0,0,255)" />
    <sodipodi:guide
       position="117.5506,69.999999"
       orientation="0,1"
       id="guide7978"
       inkscape:locked="false"
       inkscape:label=""
       inkscape:color="rgb(0,0,255)" />
    <sodipodi:guide
       position="117.5,29.999954"
       orientation="1,0"
       id="guide8078"
       inkscape:locked="false"
       inkscape:label=""
       inkscape:color="rgb(0,0,255)" />
    <sodipodi:guide
       position="217.5,708.26424"
       orientation="1,0"
       id="guide8080"
       inkscape:locked="false"
       inkscape:label=""
       inkscape:color="rgb(0,0,255)" />
  </sodipodi:namedview>
  <metadata
     id="metadata5">
    <rdf:RDF>
      <cc:Work
         rdf:about="">
        <dc:format>image/svg+xml</dc:format>
        <dc:type
           rdf:resource="http://purl.org/dc/dcmitype/StillImage" />
        <dc:title></dc:title>
      </cc:Work>
    </rdf:RDF>
  </metadata>
  <g
     inkscape:groupmode="layer"
     id="layer5"
     inkscape:label="No editable"
     transform="translate(0,383)"
     style="display:inline">
    <g
       inkscape:groupmode="layer"
       id="layer10"
       inkscape:label="sides"
       style="display:none">
      <path
         style="display:inline;fill:#e6e6e6;fill-opacity:1;stroke-width:28.41472244;stroke-miterlimit:4;stroke-dasharray:none"
         d="M 37.794922,0 C 16.856377,0 0,16.856377 0,37.794922 V 2532.2852 c 0,20.9385 16.856377,37.7949 37.794922,37.7949 H 595.27539 v -75.5918 H 444.09375 c -20.87373,0 -37.79488,-16.9212 -37.79492,-37.7949 -4e-5,-20.8738 16.92116,-37.795 37.79492,-37.795 h 377.95313 c 20.87376,0 37.79495,16.9212 37.79492,37.795 -4e-5,20.8737 -16.9212,37.7949 -37.79492,37.7949 H 670.86523 v 75.5918 h 557.48047 c 20.9385,0 37.7969,-16.8564 37.7969,-37.7949 V 37.794922 C 1266.1426,16.856377 1249.2842,0 1228.3457,0 Z M 103.9375,30.046875 a 7.7480314,7.7480314 0 0 1 7.74805,7.748047 7.7480314,7.7480314 0 0 1 -7.74805,7.748047 7.7480314,7.7480314 0 0 1 -7.748047,-7.748047 7.7480314,7.7480314 0 0 1 7.748047,-7.748047 z m 85.03906,0 a 7.7480314,7.7480314 0 0 1 7.74805,7.748047 7.7480314,7.7480314 0 0 1 -7.74805,7.748047 7.7480314,7.7480314 0 0 1 -7.74804,-7.748047 7.7480314,7.7480314 0 0 1 7.74804,-7.748047 z m 444.09375,0 a 7.7480314,7.7480314 0 0 1 7.74805,7.748047 7.7480314,7.7480314 0 0 1 -7.74805,7.748047 7.7480314,7.7480314 0 0 1 -7.74804,-7.748047 7.7480314,7.7480314 0 0 1 7.74804,-7.748047 z m 444.09569,0 a 7.7480314,7.7480314 0 0 1 7.7481,7.748047 7.7480314,7.7480314 0 0 1 -7.7481,7.748047 7.7480314,7.7480314 0 0 1 -7.748,-7.748047 7.7480314,7.7480314 0 0 1 7.748,-7.748047 z m 85.0391,0 a 7.7480314,7.7480314 0 0 1 7.748,7.748047 7.7480314,7.7480314 0 0 1 -7.748,7.748047 7.7480314,7.7480314 0 0 1 -7.7481,-7.748047 7.7480314,7.7480314 0 0 1 7.7481,-7.748047 z M 287.77344,75.589844 h 690.5957 c 70.43716,0 127.14256,56.707386 127.14256,127.144536 V 2216.1641 c 0,70.4371 -56.7054,127.1425 -127.14256,127.1425 h -690.5957 c -70.43715,0 -127.14258,-56.7054 -127.14258,-127.1425 V 202.73438 c 0,-70.43715 56.70543,-127.144536 127.14258,-127.144536 z M 103.9375,2373.3535 a 7.7480314,7.7480314 0 0 1 7.74805,7.7481 7.7480314,7.7480314 0 0 1 -7.74805,7.748 7.7480314,7.7480314 0 0 1 -7.748047,-7.748 7.7480314,7.7480314 0 0 1 7.748047,-7.7481 z m 85.03906,0 a 7.7480314,7.7480314 0 0 1 7.74805,7.7481 7.7480314,7.7480314 0 0 1 -7.74805,7.748 7.7480314,7.7480314 0 0 1 -7.74804,-7.748 7.7480314,7.7480314 0 0 1 7.74804,-7.7481 z m 444.09375,0 a 7.7480314,7.7480314 0 0 1 7.74805,7.7481 7.7480314,7.7480314 0 0 1 -7.74805,7.748 7.7480314,7.7480314 0 0 1 -7.74804,-7.748 7.7480314,7.7480314 0 0 1 7.74804,-7.7481 z m 444.09569,0 a 7.7480314,7.7480314 0 0 1 7.7481,7.7481 7.7480314,7.7480314 0 0 1 -7.7481,7.748 7.7480314,7.7480314 0 0 1 -7.748,-7.748 7.7480314,7.7480314 0 0 1 7.748,-7.7481 z m 85.0391,0 a 7.7480314,7.7480314 0 0 1 7.748,7.7481 7.7480314,7.7480314 0 0 1 -7.748,7.748 7.7480314,7.7480314 0 0 1 -7.7481,-7.748 7.7480314,7.7480314 0 0 1 7.7481,-7.7481 z M 103.9375,2524.5352 a 7.7480314,7.7480314 0 0 1 7.74805,7.748 7.7480314,7.7480314 0 0 1 -7.74805,7.748 7.7480314,7.7480314 0 0 1 -7.748047,-7.748 7.7480314,7.7480314 0 0 1 7.748047,-7.748 z m 85.03906,0 a 7.7480314,7.7480314 0 0 1 7.74805,7.748 7.7480314,7.7480314 0 0 1 -7.74805,7.748 7.7480314,7.7480314 0 0 1 -7.74804,-7.748 7.7480314,7.7480314 0 0 1 7.74804,-7.748 z m 888.18944,0 a 7.7480314,7.7480314 0 0 1 7.7481,7.748 7.7480314,7.7480314 0 0 1 -7.7481,7.748 7.7480314,7.7480314 0 0 1 -7.748,-7.748 7.7480314,7.7480314 0 0 1 7.748,-7.748 z m 85.0391,0 a 7.7480314,7.7480314 0 0 1 7.748,7.748 7.7480314,7.7480314 0 0 1 -7.748,7.748 7.7480314,7.7480314 0 0 1 -7.7481,-7.748 7.7480314,7.7480314 0 0 1 7.7481,-7.748 z"
         transform="matrix(0.26458333,0,0,0.26458333,0,-383)"
         id="rect815-0-7"
         inkscape:connector-curvature="0" />
    </g>
    <g
       inkscape:groupmode="layer"
       id="layer9"
       inkscape:label="front"
       transform="translate(0,-383)"
       style="display:inline">
      <path
         style="display:inline;fill:#e6e6e6;fill-opacity:1;stroke-width:7.51806211;stroke-miterlimit:4;stroke-dasharray:none"
         d="M 9.9999064,1.0625e-5 C 4.4599164,1.0625e-5 0,4.459927 0,9.999917 V 669.99994 c 0,5.53998 4.4599164,10.00043 9.9999064,10.00043 H 324.9998 c 5.53998,0 10.00043,-4.46045 10.00043,-10.00043 V 9.999917 c 0,-5.53999 -4.46045,-9.999906375 -10.00043,-9.999906375 z M 27.50013,7.9499129 c 1.132187,-2.6e-6 2.050008,0.9178169 2.050005,2.0500041 3e-6,1.132188 -0.917818,2.050007 -2.050005,2.050005 -1.132187,2e-6 -2.050006,-0.917818 -2.050004,-2.050005 -2e-6,-1.132187 0.917817,-2.0500064 2.050004,-2.0500041 z m 22.499918,0 c 1.132187,-2.6e-6 2.050008,0.9178169 2.050005,2.0500041 3e-6,1.132188 -0.917818,2.050007 -2.050005,2.050005 -1.132186,10e-7 -2.050005,-0.917818 -2.050002,-2.050005 -3e-6,-1.1321862 0.917816,-2.0500054 2.050002,-2.0500041 z m 117.499802,0 c 1.13219,-2.6e-6 2.05001,0.9178169 2.05001,2.0500041 0,1.132188 -0.91782,2.050007 -2.05001,2.050005 -1.13218,10e-7 -2.05,-0.917818 -2.05,-2.050005 0,-1.1321862 0.91782,-2.0500054 2.05,-2.0500041 z m 117.50032,0 c 1.13221,-1e-5 2.05002,0.9178118 2.05002,2.0500041 0,1.132193 -0.91781,2.050015 -2.05002,2.050005 -1.13218,-5e-6 -2.04999,-0.917823 -2.04999,-2.050005 0,-1.1321819 0.91781,-2.0499996 2.04999,-2.0500041 z m 22.49993,0 c 1.13218,4.5e-6 2.04999,0.9178222 2.04999,2.0500041 0,1.132182 -0.91781,2.05 -2.04999,2.050005 -1.13221,10e-6 -2.05002,-0.917812 -2.05002,-2.050005 0,-1.1321923 0.91781,-2.0500141 2.05002,-2.0500041 z M 76.140056,610.00006 c -18.636496,0 -33.639808,-15.0033 -33.639808,-33.63979 V 53.640149 c 0,-18.636491 15.003312,-33.640325 33.639808,-33.640325 H 258.86017 c 18.6365,0 33.6398,15.003834 33.6398,33.640325 V 576.36027 c 0,18.63649 -15.0033,33.63979 -33.6398,33.63979 z m 181.359994,9.99998 v 59.9998 H 77.500178 v -59.9998 z m -229.99992,7.94975 c 1.132192,0 2.050016,0.91781 2.050005,2.05002 -5e-6,1.13218 -0.917824,2.04999 -2.050005,2.04999 -1.132182,0 -2.049999,-0.91781 -2.050004,-2.04999 -10e-6,-1.13221 0.917812,-2.05002 2.050004,-2.05002 z m 22.499918,0 c 1.132192,0 2.050016,0.91781 2.050005,2.05002 -5e-6,1.13218 -0.917824,2.04999 -2.050005,2.04999 -1.132181,0 -2.049997,-0.91781 -2.050002,-2.04999 -1.1e-5,-1.13218 0.91781,-2.05002 2.050002,-2.05002 z m 235.000122,0 c 1.13221,0 2.05002,0.91781 2.05002,2.05002 0,1.13218 -0.91784,2.04999 -2.05002,2.04999 -1.13218,0 -2.04999,-0.91781 -2.04999,-2.04999 0,-1.13218 0.91781,-2.05002 2.04999,-2.05002 z m 22.49993,0 c 1.13218,0 2.04999,0.91784 2.04999,2.05002 0,1.13218 -0.91781,2.04999 -2.04999,2.04999 -1.13218,0 -2.05002,-0.91781 -2.05002,-2.04999 0,-1.13221 0.91781,-2.05002 2.05002,-2.05002 z M 27.50013,667.94995 c 1.132181,0 2.05,0.91781 2.050005,2.04999 -5e-6,1.13218 -0.917824,2.04999 -2.050005,2.04999 -1.132182,0 -2.049999,-0.91781 -2.050004,-2.04999 5e-6,-1.13218 0.917822,-2.04999 2.050004,-2.04999 z m 22.499918,0 c 1.132181,0 2.05,0.91781 2.050005,2.04999 -5e-6,1.13218 -0.917824,2.04999 -2.050005,2.04999 -1.132181,0 -2.049997,-0.91781 -2.050002,-2.04999 5e-6,-1.13218 0.917821,-2.04999 2.050002,-2.04999 z m 235.000122,0 c 1.13218,0 2.05002,0.91781 2.05002,2.04999 0,1.13218 -0.91784,2.04999 -2.05002,2.04999 -1.13218,0 -2.04999,-0.91781 -2.04999,-2.04999 0,-1.13218 0.91781,-2.04999 2.04999,-2.04999 z m 22.49993,0 c 1.13218,0 2.04999,0.91781 2.04999,2.04999 0,1.13218 -0.91781,2.04999 -2.04999,2.04999 -1.13218,0 -2.05002,-0.91781 -2.05002,-2.04999 0,-1.13218 0.91784,-2.04999 2.05002,-2.04999 z"
         id="rect815-36"
         inkscape:connector-curvature="0"
         sodipodi:nodetypes="sssssssssccccccccccccccccccccccccccssssssccccccccccccccccccccccccccccccccccccccccccccccc" />
    </g>
  </g>
  <g
     inkscape:groupmode="layer"
     id="layer2"
     inkscape:label="Right Panel"
     style="display:none">
    <g
       inkscape:groupmode="layer"
       id="layer7"
       inkscape:label="Shell"
       style="display:inline">
      <rect
         style="display:inline;fill:#e6e6e6;fill-opacity:1;stroke-width:7.51806211;stroke-miterlimit:4;stroke-dasharray:none"
         id="rect815-3"
         width="335"
         height="680.00012"
         x="-2.1026226e-24"
         y="1.0625e-05"
         ry="9.9999819" />
      <rect
         style="display:inline;fill:#666666;fill-opacity:1;stroke-width:10.17741871;stroke-miterlimit:4;stroke-dasharray:none"
         id="rect817-6"
         width="250"
         height="600.00006"
         x="42.500008"
         y="20.000011"
         ry="33.639881" />
      <rect
         style="display:inline;fill:#1b1b1b;fill-opacity:0.2;stroke-width:0.85569274;stroke-miterlimit:4;stroke-dasharray:none"
         id="rect830-1"
         width="335"
         height="20"
         x="-9.3998878e-16"
         y="660"
         ry="0" />
      <rect
         ry="0"
         y="620"
         x="-2.1026226e-24"
         height="20"
         width="335"
         id="rect832-2"
         style="display:inline;fill:#1b1b1b;fill-opacity:0.2;stroke-width:0.85569274;stroke-miterlimit:4;stroke-dasharray:none" />
      <rect
         style="display:inline;fill:#1b1b1b;fill-opacity:0.2;stroke-width:0.85569274;stroke-miterlimit:4;stroke-dasharray:none"
         id="rect834-9"
         width="335"
         height="20.000002"
         x="-2.1026226e-24"
         y="1.0625e-05"
         ry="0" />
      <circle
         style="display:inline;fill:#000000;fill-opacity:1;stroke-width:0.46803847;stroke-miterlimit:4;stroke-dasharray:none"
         id="path871-9-3"
         cx="167.5"
         cy="670"
         r="2.05" />
      <path
         style="display:inline;fill:#000000;fill-opacity:1;stroke-width:0.74269992;stroke-miterlimit:4;stroke-dasharray:none"
         d="m 177.5,650.00006 v 34.54408 h -20 v -34.54408 c 0,-5.52286 4.47715,-10.00001 10,-10.00001 5.52285,0 10,4.47715 10,10.00001 z"
         id="path887"
         inkscape:connector-curvature="0"
         sodipodi:nodetypes="sccsss" />
    </g>
    <g
       style="display:inline"
       inkscape:label="Screw holes"
       id="g485"
       inkscape:groupmode="layer">
      <circle
         r="2.05"
         cy="10.000001"
         cx="27.500002"
         id="circle455"
         style="display:inline;fill:#000000;fill-opacity:1;stroke-width:0.46803847;stroke-miterlimit:4;stroke-dasharray:none" />
      <circle
         style="display:inline;fill:#000000;fill-opacity:1;stroke-width:0.46803847;stroke-miterlimit:4;stroke-dasharray:none"
         id="circle457"
         cx="307.5"
         cy="10.000001"
         r="2.05" />
      <circle
         r="2.05"
         cy="629.99994"
         cx="27.500002"
         id="circle459"
         style="display:inline;fill:#000000;fill-opacity:1;stroke-width:0.46803847;stroke-miterlimit:4;stroke-dasharray:none" />
      <circle
         r="2.05"
         cy="629.99994"
         cx="307.5"
         id="circle461"
         style="display:inline;fill:#000000;fill-opacity:1;stroke-width:0.46803847;stroke-miterlimit:4;stroke-dasharray:none" />
      <circle
         r="2.05"
         cy="670.00006"
         cx="307.5"
         id="circle463"
         style="display:inline;fill:#000000;fill-opacity:1;stroke-width:0.46803847;stroke-miterlimit:4;stroke-dasharray:none" />
      <circle
         r="2.05"
         cy="670.00006"
         cx="27.500002"
         id="circle465"
         style="display:inline;fill:#000000;fill-opacity:1;stroke-width:0.46803847;stroke-miterlimit:4;stroke-dasharray:none" />
      <circle
         r="2.05"
         cy="9.9999723"
         cx="167.5"
         id="circle467"
         style="display:inline;fill:#000000;fill-opacity:1;stroke-width:0.46803847;stroke-miterlimit:4;stroke-dasharray:none" />
      <circle
         r="2.05"
         cy="629.99994"
         cx="167.5"
         id="circle469"
         style="display:inline;fill:#000000;fill-opacity:1;stroke-width:0.46803847;stroke-miterlimit:4;stroke-dasharray:none" />
      <circle
         r="2.05"
         cy="670"
         cx="167.5"
         id="circle471"
         style="display:inline;fill:#000000;fill-opacity:1;stroke-width:0.46803847;stroke-miterlimit:4;stroke-dasharray:none" />
      <circle
         r="2.05"
         cy="10.000001"
         cx="285"
         id="circle473"
         style="display:inline;fill:#000000;fill-opacity:1;stroke-width:0.46803847;stroke-miterlimit:4;stroke-dasharray:none" />
      <circle
         r="2.05"
         cy="10.000001"
         cx="50"
         id="circle475"
         style="display:inline;fill:#000000;fill-opacity:1;stroke-width:0.46803847;stroke-miterlimit:4;stroke-dasharray:none" />
      <circle
         r="2.05"
         cy="629.99994"
         cx="50"
         id="circle477"
         style="display:inline;fill:#000000;fill-opacity:1;stroke-width:0.46803847;stroke-miterlimit:4;stroke-dasharray:none" />
      <circle
         r="2.05"
         cy="670.00006"
         cx="50"
         id="circle479"
         style="display:inline;fill:#000000;fill-opacity:1;stroke-width:0.46803847;stroke-miterlimit:4;stroke-dasharray:none" />
      <circle
         r="2.05"
         cy="629.99994"
         cx="285"
         id="circle481"
         style="display:inline;fill:#000000;fill-opacity:1;stroke-width:0.46803847;stroke-miterlimit:4;stroke-dasharray:none" />
      <circle
         r="2.05"
         cy="670.00006"
         cx="285"
         id="circle483"
         style="display:inline;fill:#000000;fill-opacity:1;stroke-width:0.46803847;stroke-miterlimit:4;stroke-dasharray:none" />
    </g>
  </g>
  <g
     inkscape:groupmode="layer"
     id="layer3"
     inkscape:label="Left Panel"
     style="display:none">
    <g
       inkscape:groupmode="layer"
       id="layer6"
       inkscape:label="Shell"
       style="display:inline">
      <rect
         style="display:inline;fill:#e6e6e6;fill-opacity:1;stroke-width:7.51806211;stroke-miterlimit:4;stroke-dasharray:none"
         id="rect815-0"
         width="335"
         height="680.00012"
         x="-2.1026226e-24"
         y="1.0625e-05"
         ry="9.9999819" />
      <rect
         style="display:inline;fill:#666666;fill-opacity:1;stroke-width:10.17741871;stroke-miterlimit:4;stroke-dasharray:none"
         id="rect817-63"
         width="250"
         height="600.00006"
         x="42.500008"
         y="20.000011"
         ry="33.639881" />
      <rect
         style="display:inline;fill:#1b1b1b;fill-opacity:0.2;stroke-width:0.85569274;stroke-miterlimit:4;stroke-dasharray:none"
         id="rect830-2"
         width="335"
         height="20"
         x="-9.3998878e-16"
         y="660"
         ry="0" />
      <rect
         ry="0"
         y="620"
         x="-2.1026226e-24"
         height="20"
         width="335"
         id="rect832-0"
         style="display:inline;fill:#1b1b1b;fill-opacity:0.2;stroke-width:0.85569274;stroke-miterlimit:4;stroke-dasharray:none" />
      <rect
         style="display:inline;fill:#1b1b1b;fill-opacity:0.2;stroke-width:0.85569274;stroke-miterlimit:4;stroke-dasharray:none"
         id="rect834-6"
         width="335"
         height="20.000002"
         x="-2.1026226e-24"
         y="1.0625e-05"
         ry="0" />
      <path
         inkscape:connector-curvature="0"
         style="display:inline;fill:#000000;fill-opacity:1;stroke-width:0.74269992;stroke-miterlimit:4;stroke-dasharray:none"
         d="m 177.5,650.00006 a 10,10 0 0 1 -10,9.99998 10,10 0 0 1 -10,-9.99998 10,10 0 0 1 10,-10.00001 10,10 0 0 1 10,10.00001 z"
         id="path887-2" />
      <path
         id="path909"
         d="m 121.55952,650.00006 a 10,10 0 0 1 -10,9.99998 10,10 0 0 1 -10,-9.99998 10,10 0 0 1 10,-10.00001 10,10 0 0 1 10,10.00001 z"
         style="display:inline;fill:#000000;fill-opacity:1;stroke-width:0.74269992;stroke-miterlimit:4;stroke-dasharray:none"
         inkscape:connector-curvature="0" />
    </g>
    <g
       inkscape:groupmode="layer"
       id="layer4"
       inkscape:label="Screw holes"
       style="display:inline">
      <circle
         style="display:inline;fill:#000000;fill-opacity:1;stroke-width:0.46803847;stroke-miterlimit:4;stroke-dasharray:none"
         id="path871-1"
         cx="27.500002"
         cy="10.000001"
         r="2.05" />
      <circle
         r="2.05"
         cy="10.000001"
         cx="307.5"
         id="circle873-5"
         style="display:inline;fill:#000000;fill-opacity:1;stroke-width:0.46803847;stroke-miterlimit:4;stroke-dasharray:none" />
      <circle
         style="display:inline;fill:#000000;fill-opacity:1;stroke-width:0.46803847;stroke-miterlimit:4;stroke-dasharray:none"
         id="path871-6-54"
         cx="27.500002"
         cy="629.99994"
         r="2.05" />
      <circle
         style="display:inline;fill:#000000;fill-opacity:1;stroke-width:0.46803847;stroke-miterlimit:4;stroke-dasharray:none"
         id="path871-7-76"
         cx="307.5"
         cy="629.99994"
         r="2.05" />
      <circle
         style="display:inline;fill:#000000;fill-opacity:1;stroke-width:0.46803847;stroke-miterlimit:4;stroke-dasharray:none"
         id="path871-5-5"
         cx="307.5"
         cy="670.00006"
         r="2.05" />
      <circle
         style="display:inline;fill:#000000;fill-opacity:1;stroke-width:0.46803847;stroke-miterlimit:4;stroke-dasharray:none"
         id="path871-3-6"
         cx="27.500002"
         cy="670.00006"
         r="2.05" />
      <circle
         style="display:inline;fill:#000000;fill-opacity:1;stroke-width:0.46803847;stroke-miterlimit:4;stroke-dasharray:none"
         id="path871-56-9"
         cx="167.5"
         cy="9.9999723"
         r="2.05" />
      <circle
         style="display:inline;fill:#000000;fill-opacity:1;stroke-width:0.46803847;stroke-miterlimit:4;stroke-dasharray:none"
         id="path871-2-3"
         cx="167.5"
         cy="629.99994"
         r="2.05" />
      <circle
         style="display:inline;fill:#000000;fill-opacity:1;stroke-width:0.46803847;stroke-miterlimit:4;stroke-dasharray:none"
         id="path871-9-7"
         cx="167.5"
         cy="670"
         r="2.05" />
      <circle
         style="display:inline;fill:#000000;fill-opacity:1;stroke-width:0.46803847;stroke-miterlimit:4;stroke-dasharray:none"
         id="path871-56-3-4"
         cx="285"
         cy="10.000001"
         r="2.05" />
      <circle
         style="display:inline;fill:#000000;fill-opacity:1;stroke-width:0.46803847;stroke-miterlimit:4;stroke-dasharray:none"
         id="path871-56-6-5"
         cx="50"
         cy="10.000001"
         r="2.05" />
      <circle
         style="display:inline;fill:#000000;fill-opacity:1;stroke-width:0.46803847;stroke-miterlimit:4;stroke-dasharray:none"
         id="path871-6-7"
         cx="50"
         cy="629.99994"
         r="2.05" />
      <circle
         style="display:inline;fill:#000000;fill-opacity:1;stroke-width:0.46803847;stroke-miterlimit:4;stroke-dasharray:none"
         id="path871-6-5"
         cx="50"
         cy="670.00006"
         r="2.05" />
      <circle
         style="display:inline;fill:#000000;fill-opacity:1;stroke-width:0.46803847;stroke-miterlimit:4;stroke-dasharray:none"
         id="path871-6-3"
         cx="285"
         cy="629.99994"
         r="2.05" />
      <circle
         style="display:inline;fill:#000000;fill-opacity:1;stroke-width:0.46803847;stroke-miterlimit:4;stroke-dasharray:none"
         id="path871-6-56"
         cx="285"
         cy="670.00006"
         r="2.05" />
    </g>
  </g>
  <g
     inkscape:label="Front Panel"
     inkscape:groupmode="layer"
     id="layer1"
     transform="translate(0,383)"
     style="display:none">
    <g
       inkscape:groupmode="layer"
       id="layer8"
       inkscape:label="Shell"
       transform="translate(0,-383)"
       style="display:inline">
      <rect
         style="display:inline;fill:#e6e6e6;fill-opacity:1;stroke-width:7.51806211;stroke-miterlimit:4;stroke-dasharray:none"
         id="rect815"
         width="335"
         height="680.00006"
         x="-2.1026226e-24"
         y="1.0625e-05"
         ry="9.9999819" />
      <rect
         style="display:inline;fill:#666666;fill-opacity:1;stroke-width:10.17741871;stroke-miterlimit:4;stroke-dasharray:none"
         id="rect817"
         width="250"
         height="600.00006"
         x="42.500004"
         y="20.000011"
         ry="33.639881" />
      <rect
         style="display:inline;fill:#1b1b1b;fill-opacity:0.2;stroke-width:0.85569274;stroke-miterlimit:4;stroke-dasharray:none"
         id="rect830"
         width="335"
         height="20"
         x="-9.3998878e-16"
         y="660"
         ry="0" />
      <rect
         ry="0"
         y="620"
         x="-2.1026226e-24"
         height="20"
         width="335"
         id="rect832"
         style="display:inline;fill:#1b1b1b;fill-opacity:0.2;stroke-width:0.85569274;stroke-miterlimit:4;stroke-dasharray:none" />
      <rect
         style="display:inline;fill:#1b1b1b;fill-opacity:0.2;stroke-width:0.85569274;stroke-miterlimit:4;stroke-dasharray:none"
         id="rect834"
         width="335"
         height="20.000002"
         x="-2.1026226e-24"
         y="1.0625e-05"
         ry="0" />
      <rect
         style="display:inline;fill:#000000;fill-opacity:1;stroke-width:1.23962176;stroke-miterlimit:4;stroke-dasharray:none"
         id="rect864"
         width="180"
         height="60"
         x="77.5"
         y="620.00006"
         ry="0" />
    </g>
    <g
       style="display:inline"
       inkscape:label="Screw holes copia"
       id="g602"
       inkscape:groupmode="layer"
       transform="translate(0,-383)">
      <circle
         r="2.05"
         cy="10.000001"
         cx="27.500002"
         id="circle572"
         style="display:inline;fill:#000000;fill-opacity:1;stroke-width:0.46803847;stroke-miterlimit:4;stroke-dasharray:none" />
      <circle
         style="display:inline;fill:#000000;fill-opacity:1;stroke-width:0.46803847;stroke-miterlimit:4;stroke-dasharray:none"
         id="circle574"
         cx="307.5"
         cy="10.000001"
         r="2.05" />
      <circle
         r="2.05"
         cy="629.99994"
         cx="27.500002"
         id="circle576"
         style="display:inline;fill:#000000;fill-opacity:1;stroke-width:0.46803847;stroke-miterlimit:4;stroke-dasharray:none" />
      <circle
         r="2.05"
         cy="629.99994"
         cx="307.5"
         id="circle578"
         style="display:inline;fill:#000000;fill-opacity:1;stroke-width:0.46803847;stroke-miterlimit:4;stroke-dasharray:none" />
      <circle
         r="2.05"
         cy="670.00006"
         cx="307.5"
         id="circle580"
         style="display:inline;fill:#000000;fill-opacity:1;stroke-width:0.46803847;stroke-miterlimit:4;stroke-dasharray:none" />
      <circle
         r="2.05"
         cy="670.00006"
         cx="27.500002"
         id="circle582"
         style="display:inline;fill:#000000;fill-opacity:1;stroke-width:0.46803847;stroke-miterlimit:4;stroke-dasharray:none" />
      <circle
         r="2.05"
         cy="9.9999723"
         cx="167.5"
         id="circle584"
         style="display:inline;fill:#000000;fill-opacity:1;stroke-width:0.46803847;stroke-miterlimit:4;stroke-dasharray:none" />
      <circle
         r="2.05"
         cy="629.99994"
         cx="167.5"
         id="circle586"
         style="display:inline;fill:#000000;fill-opacity:1;stroke-width:0.46803847;stroke-miterlimit:4;stroke-dasharray:none" />
      <circle
         r="2.05"
         cy="670"
         cx="167.5"
         id="circle588"
         style="display:inline;fill:#000000;fill-opacity:1;stroke-width:0.46803847;stroke-miterlimit:4;stroke-dasharray:none" />
      <circle
         r="2.05"
         cy="10.000001"
         cx="285"
         id="circle590"
         style="display:inline;fill:#000000;fill-opacity:1;stroke-width:0.46803847;stroke-miterlimit:4;stroke-dasharray:none" />
      <circle
         r="2.05"
         cy="10.000001"
         cx="50"
         id="circle592"
         style="display:inline;fill:#000000;fill-opacity:1;stroke-width:0.46803847;stroke-miterlimit:4;stroke-dasharray:none" />
      <circle
         r="2.05"
         cy="629.99994"
         cx="50"
         id="circle594"
         style="display:inline;fill:#000000;fill-opacity:1;stroke-width:0.46803847;stroke-miterlimit:4;stroke-dasharray:none" />
      <circle
         r="2.05"
         cy="670.00006"
         cx="50"
         id="circle596"
         style="display:inline;fill:#000000;fill-opacity:1;stroke-width:0.46803847;stroke-miterlimit:4;stroke-dasharray:none" />
      <circle
         r="2.05"
         cy="629.99994"
         cx="285"
         id="circle598"
         style="display:inline;fill:#000000;fill-opacity:1;stroke-width:0.46803847;stroke-miterlimit:4;stroke-dasharray:none" />
      <circle
         r="2.05"
         cy="670.00006"
         cx="285"
         id="circle600"
         style="display:inline;fill:#000000;fill-opacity:1;stroke-width:0.46803847;stroke-miterlimit:4;stroke-dasharray:none" />
    </g>
  </g>
</svg>
