<?xml version="1.0" encoding="UTF-8" standalone="no"?>
<!-- Created with Inkscape (http://www.inkscape.org/) -->

<svg
   xmlns:dc="http://purl.org/dc/elements/1.1/"
   xmlns:cc="http://creativecommons.org/ns#"
   xmlns:rdf="http://www.w3.org/1999/02/22-rdf-syntax-ns#"
   xmlns:svg="http://www.w3.org/2000/svg"
   xmlns="http://www.w3.org/2000/svg"
   xmlns:xlink="http://www.w3.org/1999/xlink"
   xmlns:sodipodi="http://sodipodi.sourceforge.net/DTD/sodipodi-0.dtd"
   xmlns:inkscape="http://www.inkscape.org/namespaces/inkscape"
   sodipodi:docname="head_56x73.svg"
   inkscape:version="0.92.4 (5da689c313, 2019-01-14)"
   id="svg8"
   version="1.1"
   viewBox="0 0 210 297"
   height="297mm"
   width="210mm">
  <defs
     id="defs2" />
  <sodipodi:namedview
     id="base"
     pagecolor="#9c9c9c"
     bordercolor="#666666"
     borderopacity="1.0"
     inkscape:pageopacity="0"
     inkscape:pageshadow="2"
     inkscape:zoom="2"
     inkscape:cx="2.2730866"
     inkscape:cy="41.315222"
     inkscape:document-units="mm"
     inkscape:current-layer="layer1"
     showgrid="false"
     showborder="false"
     showguides="true"
     inkscape:guide-bbox="true"
     inkscape:snap-object-midpoints="false"
     inkscape:snap-center="true"
     inkscape:window-width="1920"
     inkscape:window-height="1043"
     inkscape:window-x="1080"
     inkscape:window-y="531"
     inkscape:window-maximized="1"
     inkscape:snap-smooth-nodes="true">
    <sodipodi:guide
       inkscape:color="rgb(0,0,255)"
       inkscape:label=""
       inkscape:locked="false"
       id="guide815"
       orientation="1,0"
       position="0,192.9686" />
    <sodipodi:guide
       inkscape:color="rgb(0,0,255)"
       inkscape:label=""
       inkscape:locked="false"
       id="guide817"
       orientation="0,1"
       position="-23.786987,0" />
    <sodipodi:guide
       inkscape:color="rgb(0,0,255)"
       inkscape:label=""
       inkscape:locked="false"
       id="guide823"
       orientation="-0.5,0.8660254"
       position="-28,-16.165815" />
    <sodipodi:guide
       inkscape:color="rgb(0,0,255)"
       inkscape:label=""
       inkscape:locked="false"
       id="guide825"
       orientation="-0.5,-0.8660254"
       position="28,-16.165809" />
    <sodipodi:guide
       inkscape:color="rgb(0,0,255)"
       inkscape:label=""
       inkscape:locked="false"
       id="guide916"
       orientation="-0.8660254,-0.5"
       position="0,32.331615" />
    <sodipodi:guide
       inkscape:locked="false"
       id="guide918"
       orientation="0,1"
       position="-28,-16.165816" />
    <sodipodi:guide
       inkscape:color="rgb(0,0,255)"
       inkscape:label=""
       inkscape:locked="false"
       id="guide920"
       orientation="-0.8660254,0.5"
       position="0,32.331615" />
    <sodipodi:guide
       inkscape:color="rgb(0,0,255)"
       inkscape:label=""
       inkscape:locked="false"
       id="guide922"
       orientation="-0.5,0.8660254"
       position="0,32.331615" />
    <sodipodi:guide
       inkscape:color="rgb(0,0,255)"
       inkscape:label=""
       inkscape:locked="false"
       id="guide924"
       orientation="-0.5,0.8660254"
       position="28.000001,-16.16581" />
    <sodipodi:guide
       inkscape:color="rgb(0,0,255)"
       inkscape:label=""
       inkscape:locked="false"
       id="guide926"
       orientation="-0.5,-0.8660254"
       position="-28.000002,-16.165816" />
    <sodipodi:guide
       inkscape:color="rgb(0,0,255)"
       inkscape:label=""
       inkscape:locked="false"
       id="guide928"
       orientation="-0.5,-0.8660254"
       position="0,32.331615" />
    <sodipodi:guide
       inkscape:locked="false"
       id="guide930"
       orientation="1,0"
       position="-28.000001,-16.165816" />
    <sodipodi:guide
       inkscape:locked="false"
       id="guide932"
       orientation="1,0"
       position="27.99999,-16.165816" />
    <sodipodi:guide
       inkscape:color="rgb(0,0,255)"
       inkscape:label=""
       inkscape:locked="false"
       id="guide973"
       orientation="1,0"
       position="24.5,14.323977" />
    <sodipodi:guide
       inkscape:locked="false"
       id="guide1022"
       orientation="0,1"
       position="-24.499802,-23.666988" />
    <sodipodi:guide
       inkscape:color="rgb(0,0,255)"
       inkscape:label=""
       inkscape:locked="false"
       id="guide1024"
       orientation="-0.8660254,-0.5"
       position="8.2463117,33.050944" />
    <sodipodi:guide
       inkscape:color="rgb(0,0,255)"
       inkscape:label=""
       inkscape:locked="false"
       id="guide1026"
       orientation="-0.8660254,0.5"
       position="-8.2463108,33.050937" />
    <sodipodi:guide
       inkscape:locked="false"
       id="guide1032"
       orientation="0,1"
       position="24.499795,-18.801919" />
  </sodipodi:namedview>
  <metadata
     id="metadata5">
    <rdf:RDF>
      <cc:Work
         rdf:about="">
        <dc:format>image/svg+xml</dc:format>
        <dc:type
           rdf:resource="http://purl.org/dc/dcmitype/StillImage" />
        <dc:title></dc:title>
      </cc:Work>
    </rdf:RDF>
  </metadata>
  <g
     inkscape:label="Head"
     inkscape:groupmode="layer"
     id="layer1">
    <g
       id="g988"
       inkscape:transform-center-y="23.66544"
       inkscape:transform-center-x="-29.249897">
      <path
         inkscape:transform-center-y="23.665438"
         inkscape:transform-center-x="-29.249894"
         inkscape:connector-curvature="0"
         id="circle934"
         transform="scale(0.26458333)"
         d="m 105.82617,1189.2871 c -4.75052,0.011 -9.377716,1.513 -13.228514,4.2949 v 18.3877 18.3877 c 3.852205,2.7777 8.479284,4.2759 13.228514,4.2832 12.52394,3e-4 22.67699,-10.1519 22.67774,-22.6758 3e-4,-12.5247 -10.15305,-22.678 -22.67774,-22.6777 z"
         style="stroke:none;stroke-width:1.63267243"
         sodipodi:nodetypes="ccccccc" />
    </g>
    <g
       inkscape:transform-center-x="29.249897"
       inkscape:transform-center-y="23.66544"
       id="g1004"
       transform="matrix(-1,0,0,1,-5.3977463e-6,0)">
      <path
         sodipodi:nodetypes="ccccccc"
         style="stroke:none;stroke-width:1.63267243"
         d="m 105.82617,1189.2871 c -4.75052,0.011 -9.377716,1.513 -13.228514,4.2949 v 18.3877 18.3877 c 3.852205,2.7777 8.479284,4.2759 13.228514,4.2832 12.52394,3e-4 22.67699,-10.1519 22.67774,-22.6758 3e-4,-12.5247 -10.15305,-22.678 -22.67774,-22.6777 z"
         transform="scale(0.26458333)"
         id="path1002"
         inkscape:connector-curvature="0"
         inkscape:transform-center-x="-29.249894"
         inkscape:transform-center-y="23.665438" />
    </g>
    <g
       inkscape:transform-center-x="-6.492113"
       inkscape:transform-center-y="-36.350389"
       id="g1008"
       transform="rotate(-120,-2.6988731e-6,296.99999)">
      <path
         sodipodi:nodetypes="ccccccc"
         style="stroke:none;stroke-width:1.63267243"
         d="m 105.82617,1189.2871 c -4.75052,0.011 -9.377716,1.513 -13.228514,4.2949 v 18.3877 18.3877 c 3.852205,2.7777 8.479284,4.2759 13.228514,4.2832 12.52394,3e-4 22.67699,-10.1519 22.67774,-22.6758 3e-4,-12.5247 -10.15305,-22.678 -22.67774,-22.6777 z"
         transform="scale(0.26458333)"
         id="path1006"
         inkscape:connector-curvature="0"
         inkscape:transform-center-x="-29.249894"
         inkscape:transform-center-y="23.665438" />
    </g>
    <g
       transform="matrix(0.5,0.8660254,0.8660254,-0.5,-257.20954,445.49999)"
       id="g1012"
       inkscape:transform-center-y="12.684176"
       inkscape:transform-center-x="-34.4987">
      <path
         inkscape:transform-center-y="23.665438"
         inkscape:transform-center-x="-29.249894"
         inkscape:connector-curvature="0"
         id="path1010"
         transform="scale(0.26458333)"
         d="m 105.82617,1189.2871 c -4.75052,0.011 -9.377716,1.513 -13.228514,4.2949 v 18.3877 18.3877 c 3.852205,2.7777 8.479284,4.2759 13.228514,4.2832 12.52394,3e-4 22.67699,-10.1519 22.67774,-22.6758 3e-4,-12.5247 -10.15305,-22.678 -22.67774,-22.6777 z"
         style="stroke:none;stroke-width:1.63267243"
         sodipodi:nodetypes="ccccccc" />
    </g>
    <g
       transform="rotate(120,-3.2939049e-6,296.99999)"
       id="g1016"
       inkscape:transform-center-y="12.684174"
       inkscape:transform-center-x="34.498706">
      <path
         inkscape:transform-center-y="23.665438"
         inkscape:transform-center-x="-29.249894"
         inkscape:connector-curvature="0"
         id="path1014"
         transform="scale(0.26458333)"
         d="m 105.82617,1189.2871 c -4.75052,0.011 -9.377716,1.513 -13.228514,4.2949 v 18.3877 18.3877 c 3.852205,2.7777 8.479284,4.2759 13.228514,4.2832 12.52394,3e-4 22.67699,-10.1519 22.67774,-22.6758 3e-4,-12.5247 -10.15305,-22.678 -22.67774,-22.6777 z"
         style="stroke:none;stroke-width:1.63267243"
         sodipodi:nodetypes="ccccccc" />
    </g>
    <g
       inkscape:transform-center-x="6.4921071"
       inkscape:transform-center-y="-36.350381"
       id="g1020"
       transform="matrix(0.5,-0.8660254,-0.8660254,-0.5,257.20954,445.49999)">
      <path
         sodipodi:nodetypes="ccccccc"
         style="stroke:none;stroke-width:1.63267243"
         d="m 105.82617,1189.2871 c -4.75052,0.011 -9.377716,1.513 -13.228514,4.2949 v 18.3877 18.3877 c 3.852205,2.7777 8.479284,4.2759 13.228514,4.2832 12.52394,3e-4 22.67699,-10.1519 22.67774,-22.6758 3e-4,-12.5247 -10.15305,-22.678 -22.67774,-22.6777 z"
         transform="scale(0.26458333)"
         id="path1018"
         inkscape:connector-curvature="0"
         inkscape:transform-center-x="-29.249894"
         inkscape:transform-center-y="23.665438" />
    </g>
    <path
       style="fill:#3c763b;fill-opacity:1;stroke:none;stroke-width:2.19411993;stroke-miterlimit:4;stroke-dasharray:none;stroke-opacity:1"
       d="m 0,1122.5195 -96.681641,55.8184 v 0 c 2.662498,4.6378 4.083962,9.8944 4.083965,15.2422 l 1.7e-5,30.4094 c 2e-6,4.0583 2.298079,6.366 6.949349,6.366 H 0 Z"
       id="rect1030"
       inkscape:connector-curvature="0"
       sodipodi:nodetypes="cccssscc"
       inkscape:transform-center-x="12.790188"
       inkscape:transform-center-y="14.265751"
       transform="scale(0.26458333)" />
    <circle
       style="fill:none;fill-opacity:1;stroke:#ea763b;stroke-width:0.26458332;stroke-opacity:1"
       id="path2056"
       cx="5.1961524e-06"
       cy="297"
       r="36.66" />
    <path
       inkscape:transform-center-y="14.265755"
       inkscape:transform-center-x="-12.790188"
       sodipodi:nodetypes="cccssscc"
       inkscape:connector-curvature="0"
       id="path4194"
       d="M 2.5474355e-5,296.99995 25.580376,311.76857 v 0 c -0.704453,1.22708 -1.080548,2.61789 -1.080549,4.03283 l -5e-6,8.04582 c 0,1.07376 -0.608033,1.68434 -1.838681,1.68434 H 2.5474355e-5 Z"
       style="fill:#3c763b;fill-opacity:1;stroke:none;stroke-width:0.58052754;stroke-miterlimit:4;stroke-dasharray:none;stroke-opacity:1" />
    <path
       inkscape:transform-center-y="0.25159514"
       inkscape:transform-center-x="-18.192269"
       sodipodi:nodetypes="cccssscc"
       inkscape:connector-curvature="0"
       id="path4196"
       d="M -2.6533829e-5,297.00004 25.580147,311.76896 v 0 c 0.71046,-1.22361 1.726888,-2.24473 2.952261,-2.9522 l 6.967882,-4.02291 c 0.929902,-0.53688 1.154663,-1.36874 0.539338,-2.43452 l -11.330557,-19.6251 z"
       style="fill:#3c763b;fill-opacity:1;stroke:none;stroke-width:0.58052754;stroke-miterlimit:4;stroke-dasharray:none;stroke-opacity:1" />
    <path
       style="fill:#3c763b;fill-opacity:1;stroke:none;stroke-width:0.58052754;stroke-miterlimit:4;stroke-dasharray:none;stroke-opacity:1"
       d="M -5.2411097e-5,297 -2.274111e-4,267.46246 v 0 C 1.4146816,267.45946 2.8072056,267.0893 4.0325806,266.38183 l 6.9678874,-4.02291 c 0.929903,-0.53688 1.762697,-0.3156 2.378021,0.75018 l 11.330558,19.6251 z"
       id="path4198"
       inkscape:connector-curvature="0"
       sodipodi:nodetypes="cccssscc"
       inkscape:transform-center-x="-12.354412"
       inkscape:transform-center-y="-17.461238" />
    <path
       style="fill:#3c763b;fill-opacity:1;stroke:none;stroke-width:0.58052754;stroke-miterlimit:4;stroke-dasharray:none;stroke-opacity:1"
       d="M 6.7709737e-5,297.00001 2.4084928e-4,267.46247 v 0 C -1.4146665,267.459 -2.8071964,267.08931 -4.0325698,266.38184 l -6.9678832,-4.02291 c -0.929903,-0.53688 -1.762695,-0.31559 -2.378025,0.75018 l -11.330557,19.6251 z"
       id="path4200"
       inkscape:connector-curvature="0"
       sodipodi:nodetypes="cccssscc"
       inkscape:transform-center-x="12.35441"
       inkscape:transform-center-y="-17.461237" />
    <path
       inkscape:transform-center-y="0.25159543"
       inkscape:transform-center-x="18.192274"
       sodipodi:nodetypes="cccssscc"
       inkscape:connector-curvature="0"
       id="path4202"
       d="M 4.6928401e-5,297.00004 -25.580125,311.76896 v 0 c -0.71046,-1.22361 -1.726883,-2.24473 -2.952257,-2.9522 l -6.967886,-4.02291 c -0.929904,-0.53688 -1.154666,-1.36874 -0.539336,-2.43452 l 11.330556,-19.6251 z"
       style="fill:#3c763b;fill-opacity:1;stroke:none;stroke-width:0.58052754;stroke-miterlimit:4;stroke-dasharray:none;stroke-opacity:1" />
    <path
       style="fill:none;stroke:#000000;stroke-width:0.26499999;stroke-linecap:butt;stroke-linejoin:miter;stroke-opacity:1;stroke-miterlimit:4;stroke-dasharray:1.05999995,0.26499999;stroke-dashoffset:0"
       d="M 5.5233153e-6,297 31.750507,278.66883"
       id="path2058"
       inkscape:connector-curvature="0"
       inkscape:transform-center-x="-15.875256"
       inkscape:transform-center-y="-9.165578" />
    <text
       id="text4168"
       y="0"
       x="0">
      <textPath
         id="textPath4166"
         dy="-0.952499974748"
         startOffset="50%"
         xlink:href="#path2058"
         style="font-size:1.8520833333;vertical-align:bottom;fill-opacity:1.0;font-style:normal;fill:#000000;font-weight:normal;stroke:none;text-anchor:middle;text-align:center">36,66 mm</textPath>
    </text>
  </g>
</svg>
